<svg xmlns="http://www.w3.org/2000/svg" viewBox="0 0 114.36 102.51"><path d="M46.72,7,2.64,83.4a12.07,12.07,0,0,0,10.45,18.11h88.18A12.07,12.07,0,0,0,111.72,83.4L67.64,7A12.08,12.08,0,0,0,46.72,7Z" style="fill:none;stroke:#fecaca;stroke-miterlimit:10;stroke-width:2px"/><path d="M52.78,75.23a4.36,4.36,0,0,1,3.52-4,4.68,4.68,0,0,1,5.25,5.54,4.29,4.29,0,0,1-3.16,3.58C55,81.24,52.39,78.71,52.78,75.23Zm1.77-12.7-.87-30a3.51,3.51,0,0,1,3.51-3.61h0a3.51,3.51,0,0,1,3.51,3.61l-.88,30a2.64,2.64,0,0,1-2.63,2.56h0A2.64,2.64,0,0,1,54.55,62.53Z" style="fill:#fecaca"/></svg>